<?xml version="1.0" standalone="no"?><!DOCTYPE svg PUBLIC "-//W3C//DTD SVG 1.1//EN" "http://www.w3.org/Graphics/SVG/1.1/DTD/svg11.dtd"><svg t="1687844447800" class="icon" viewBox="0 0 1024 1024" version="1.1" xmlns="http://www.w3.org/2000/svg" p-id="1311" xmlns:xlink="http://www.w3.org/1999/xlink" width="200" height="200"><path d="M737.28 518.144v157.696c0 33.9968-27.4432 61.44-61.44 61.44H348.16c-33.9968 0-61.44-27.4432-61.44-61.44v-157.696c0-3.4816-2.6624-6.144-6.144-6.144h-28.672c-3.4816 0-6.144 2.6624-6.144 6.144v157.696c0 56.5248 45.8752 102.4 102.4 102.4h327.68c56.5248 0 102.4-45.8752 102.4-102.4v-157.696c0-3.4816-2.6624-6.144-6.144-6.144h-28.672c-3.4816 0-6.144 2.6624-6.144 6.144z" p-id="1312"></path><path d="M681.5744 483.1232l-150.528 138.6496c-5.5296 5.12-12.6976 7.7824-19.8656 7.7824s-14.336-2.4576-19.8656-7.7824l-150.528-138.6496c-2.2528-2.048-2.2528-5.3248-0.2048-7.5776l17.408-18.2272c2.048-2.048 5.5296-2.2528 7.7824-0.2048l145.408 134.144 145.408-134.144c2.2528-2.048 5.7344-1.8432 7.7824 0.2048l17.408 18.2272c2.048 2.2528 2.048 5.5296-0.2048 7.5776z" p-id="1313"></path><path d="M532.0704 346.3168v263.5776H493.568V346.3168c0-3.072 2.6624-5.7344 5.7344-5.7344H526.336c3.2768 0 5.7344 2.6624 5.7344 5.7344z" p-id="1314"></path></svg>