<?xml version="1.0" standalone="no"?><!DOCTYPE svg PUBLIC "-//W3C//DTD SVG 1.1//EN" "http://www.w3.org/Graphics/SVG/1.1/DTD/svg11.dtd"><svg t="1687844439484" class="icon" viewBox="0 0 1024 1024" version="1.1" xmlns="http://www.w3.org/2000/svg" p-id="1161" xmlns:xlink="http://www.w3.org/1999/xlink" width="200" height="200"><path d="M762.2656 542.3104c-7.9872 7.9872-18.432 12.0832-28.8768 12.0832s-20.8896-4.096-28.8768-12.0832L255.3856 93.3888c-15.9744-15.9744-15.9744-41.984 0-57.9584 7.9872-7.9872 18.432-12.0832 28.8768-12.0832s20.8896 4.096 28.8768 12.0832l448.9216 448.9216c16.1792 15.9744 16.1792 41.984 0.2048 57.9584z" p-id="1162"></path><path d="M774.5536 514.8672c0 10.4448-4.096 20.8896-12.0832 29.0816L313.5488 992.8704c-15.9744 15.9744-41.984 15.9744-57.9584 0-7.9872-7.9872-12.0832-18.432-12.0832-28.8768s4.096-20.8896 12.0832-28.8768L704.512 485.9904c15.9744-15.9744 41.984-15.9744 57.9584 0 7.9872 7.9872 12.0832 18.432 12.0832 28.8768z" p-id="1163"></path></svg>