<?xml version="1.0" standalone="no"?><!DOCTYPE svg PUBLIC "-//W3C//DTD SVG 1.1//EN" "http://www.w3.org/Graphics/SVG/1.1/DTD/svg11.dtd"><svg t="1687844417125" class="icon" viewBox="0 0 1024 1024" version="1.1" xmlns="http://www.w3.org/2000/svg" p-id="866" xmlns:xlink="http://www.w3.org/1999/xlink" width="200" height="200"><path d="M762.4704 93.3888L313.5488 542.3104c-7.9872 7.9872-18.432 12.0832-28.8768 12.0832s-20.8896-4.096-28.8768-12.0832c-15.9744-15.9744-15.9744-41.984 0-57.9584L704.512 35.4304c7.9872-7.9872 18.432-12.0832 28.8768-12.0832s20.8896 4.096 28.8768 12.0832c16.1792 15.9744 16.1792 41.984 0.2048 57.9584z" p-id="867"></path><path d="M774.144 963.7888c0 10.4448-4.096 20.8896-12.0832 28.8768-15.9744 15.9744-41.984 15.9744-57.9584 0L255.3856 543.744c-7.9872-7.9872-12.0832-18.432-12.0832-29.0816s4.096-20.8896 12.0832-28.8768c15.9744-15.9744 41.984-15.9744 57.9584 0l448.9216 448.9216c7.9872 8.192 11.8784 18.6368 11.8784 29.0816z" p-id="868"></path></svg>