<?xml version="1.0" standalone="no"?><!DOCTYPE svg PUBLIC "-//W3C//DTD SVG 1.1//EN" "http://www.w3.org/Graphics/SVG/1.1/DTD/svg11.dtd"><svg t="1687844607966" class="icon" viewBox="0 0 1024 1024" version="1.1" xmlns="http://www.w3.org/2000/svg" p-id="3340" xmlns:xlink="http://www.w3.org/1999/xlink" width="200" height="200"><path d="M512 85.333333a213.333333 213.333333 0 1 0 0 426.666667 213.333333 213.333333 0 0 0 0-426.666667zM213.333333 298.666667a298.666667 298.666667 0 1 1 597.333334 0A298.666667 298.666667 0 0 1 213.333333 298.666667z" p-id="3341"></path><path d="M493.738667 597.333333c-212.693333 0-389.546667 169.088-408.576 387.712a42.666667 42.666667 0 0 1-84.992-7.424C22.784 717.824 233.898667 512 493.738667 512c73.941333 0 144.213333 16.768 207.274666 46.805333a42.666667 42.666667 0 1 1-36.693333 77.056A395.349333 395.349333 0 0 0 493.738667 597.333333zM640 768a42.666667 42.666667 0 0 1 42.666667-42.666667h256a42.666667 42.666667 0 0 1 0 85.333334h-256a42.666667 42.666667 0 0 1-42.666667-42.666667zM512 981.333333a42.666667 42.666667 0 0 0 42.666667 42.666667h426.666666a42.666667 42.666667 0 0 0 0-85.333333H554.666667a42.666667 42.666667 0 0 0-42.666667 42.666666z" p-id="3342"></path></svg>