<?xml version="1.0" standalone="no"?><!DOCTYPE svg PUBLIC "-//W3C//DTD SVG 1.1//EN" "http://www.w3.org/Graphics/SVG/1.1/DTD/svg11.dtd"><svg t="1687844515336" class="icon" viewBox="0 0 1024 1024" version="1.1" xmlns="http://www.w3.org/2000/svg" p-id="1402" xmlns:xlink="http://www.w3.org/1999/xlink" width="200" height="200"><path d="M913.0496 511.3344a378.7008 378.7008 0 0 1-2.6752 44.5568l-36.992 12.48-32.5376 11.136-10.2528 32.9856a308.3392 308.3392 0 0 1-22.7328 55.2576l-16.0512 30.2976 32.9856 65.5104a377.9328 377.9328 0 0 1-28.9792 32.9856 345.8688 345.8688 0 0 1-32.5376 28.9664l-65.5232-32.0896-30.3104 15.5904a350.848 350.848 0 0 1-55.7184 23.168l-32.5376 10.2656-8.9216 31.1936-12.48 36.992a356.9408 356.9408 0 0 1-44.5696 2.6624 379.712 379.712 0 0 1-44.5696-2.6752l-12.4928-36.992-10.688-32.512-32.9856-10.2656a312.064 312.064 0 0 1-55.2832-22.72l-30.3104-14.72-30.7456 15.168-34.7776 17.3696a379.7504 379.7504 0 0 1-32.9856-28.9664 372.1344 372.1344 0 0 1-28.9664-32.9728l32.5376-65.0624-16.0512-30.2976a321.2544 321.2544 0 0 1-22.7328-55.2704l-10.24-32.9728-69.5424-23.168a356.672 356.672 0 0 1-2.688-44.5696c0.0256-14.8864 0.9088-29.7728 2.688-44.5568l69.5296-23.168 10.2528-32.9856a339.968 339.968 0 0 1 20.5056-54.8096l16.0512-30.3104-15.1552-30.7456-17.3824-34.7648a401.1264 401.1264 0 0 1 63.744-61.4912l65.5232 32.5248 30.3104-16.0384a337.92 337.92 0 0 1 55.7184-23.168l32.5376-10.2528 10.7008-32.5376 12.48-36.992a389.2352 389.2352 0 0 1 44.5696-2.6624c14.8992 0 29.7856 0.896 44.5696 2.6752l23.1808 69.0688 32.5376 10.24c18.5472 5.632 36.5824 12.8 53.9392 21.4016l30.3104 16.0384 65.0752-32.5248a410.0352 410.0352 0 0 1 61.9648 61.9392l-31.2064 66.8416 15.616 30.3104a346.2144 346.2144 0 0 1 23.168 55.7056l10.24 32.5248 32.5504 10.7008 36.992 12.48c1.4848 14.3488 1.92 28.8 1.344 43.2256z m102.8224-80.2816l-4.3136-26.816-82.304-27.3024a434.6368 434.6368 0 0 0-26.7904-64.6528l38.7584-77.5936-15.7952-22.0288a526.6176 526.6176 0 0 0-114.8416-116.864l-22.016-15.808-77.5168 38.784a439.5136 439.5136 0 0 0-64.5888-26.816L619.1872 11.0208 592.384 7.168A506.752 506.752 0 0 0 511.5264 0c-27.1104 0.2432-54.144 2.6368-80.8704 7.1808l-27.2768 4.3136-27.264 84.3008a455.296 455.296 0 0 0-64.6144 26.816L233.984 81.4208l-22.016 14.3744a514.1504 514.1504 0 0 0-116.2624 116.3776l-15.7952 22.0288 38.7584 77.5936a445.2224 445.2224 0 0 0-22.9632 64.6656L11.008 403.7632l-3.84 27.2896A516.7744 516.7744 0 0 0 0 512c0.256 27.136 2.6496 54.1952 7.168 80.9472l4.3136 26.816 84.224 27.776a435.1104 435.1104 0 0 0 26.7904 64.6656l-38.7584 77.1072 15.7952 22.0288a505.664 505.664 0 0 0 52.1472 62.272 518.8224 518.8224 0 0 0 62.208 52.6848l22.016 15.7952 77.5168-38.784a427.5584 427.5584 0 0 0 64.6016 26.816l27.264 82.3808 26.8032 4.3136c26.7264 4.544 53.76 6.9376 80.8704 7.1808 27.0976-0.256 54.144-2.6496 80.8704-7.1808l26.7904-4.3136 27.264-82.3808a465.8176 465.8176 0 0 0 64.6144-26.816l77.5168 38.784 22.016-15.7952a475.7504 475.7504 0 0 0 62.208-52.6848 516.672 516.672 0 0 0 52.1472-62.272l15.7824-22.016-38.7584-77.6064a431.2832 431.2832 0 0 0 26.8032-64.6528l82.304-27.3024 4.3008-26.816c4.544-26.752 6.9376-53.824 7.1808-80.9472a454.9376 454.9376 0 0 0-8.128-80.9472z" fill="#4C4C4C" p-id="1403"></path><path d="M512 318.272A193.728 193.728 0 0 1 705.728 512c0 106.9952-86.7328 193.728-193.728 193.728S318.272 619.008 318.272 512 404.992 318.272 512 318.272z m16.2048 112.3072a83.0208 83.0208 0 1 0-32.3968 162.8544 83.0208 83.0208 0 0 0 32.384-162.8544z" fill="#CDCCD2" p-id="1404"></path></svg>