<?xml version="1.0" standalone="no"?><!DOCTYPE svg PUBLIC "-//W3C//DTD SVG 1.1//EN" "http://www.w3.org/Graphics/SVG/1.1/DTD/svg11.dtd"><svg t="1687844430955" class="icon" viewBox="0 0 1024 1024" version="1.1" xmlns="http://www.w3.org/2000/svg" p-id="1010" xmlns:xlink="http://www.w3.org/1999/xlink" width="200" height="200"><path d="M824.7296 574.8736H365.7728c-20.48 0-37.4784-15.5648-41.5744-38.0928l-51.8144-282.624c-2.8672-15.36 1.2288-31.1296 10.6496-42.3936 7.9872-9.6256 19.2512-14.9504 30.9248-14.9504h549.888c11.4688 0 22.3232 5.12 30.3104 14.336 9.216 10.6496 13.7216 26.0096 11.4688 40.96l-39.3216 282.624c-3.072 23.1424-20.6848 40.1408-41.5744 40.1408z m-458.3424-40.96h457.5232c0.6144-0.6144 1.6384-2.2528 2.048-4.9152l39.3216-282.624c0.6144-4.3008-1.024-7.5776-2.048-8.6016H314.5728c-1.024 1.024-2.8672 4.5056-2.048 9.0112l51.8144 282.624c0.6144 2.6624 1.6384 4.096 2.048 4.5056zM857.9072 653.7216H291.84c-11.264 0-20.48-9.216-20.48-20.48s9.216-20.48 20.48-20.48h566.0672c11.264 0 20.48 9.216 20.48 20.48s-9.216 20.48-20.48 20.48zM320.1024 859.7504c-39.5264 0-71.68-32.1536-71.68-71.68s32.1536-71.68 71.68-71.68 71.68 32.1536 71.68 71.68-32.1536 71.68-71.68 71.68z m0-102.4c-16.9984 0-30.72 13.7216-30.72 30.72s13.7216 30.72 30.72 30.72 30.72-13.7216 30.72-30.72-13.7216-30.72-30.72-30.72zM805.4784 859.7504c-39.5264 0-71.68-32.1536-71.68-71.68s32.1536-71.68 71.68-71.68 71.68 32.1536 71.68 71.68-32.1536 71.68-71.68 71.68z m0-102.4c-16.9984 0-30.72 13.7216-30.72 30.72s13.7216 30.72 30.72 30.72 30.72-13.7216 30.72-30.72-13.9264-30.72-30.72-30.72z" p-id="1011"></path><path d="M270.9504 636.7232l-108.544-499.9168c-1.8432-8.8064 5.5296-17.2032 16.7936-18.8416 11.0592-1.4336 21.7088 4.5056 23.7568 13.312l108.544 499.9168c1.8432 8.8064-5.5296 17.2032-16.7936 18.8416-11.264 1.4336-21.9136-4.5056-23.7568-13.312z" p-id="1012"></path><path d="M182.6816 158.72H83.968c-11.264 0-20.48-9.216-20.48-20.48s9.216-20.48 20.48-20.48h98.9184c11.264 0 20.48 9.216 20.48 20.48-0.2048 11.264-9.216 20.48-20.6848 20.48z" p-id="1013"></path></svg>